<svg id="_24-hours" data-name="24-hours" xmlns="http://www.w3.org/2000/svg" width="70" height="70" viewBox="0 0 70 70">
  <path id="Path_13300" data-name="Path 13300" d="M396.432,301.25h-5.46l-9.95,17.34h11.264l-.015,5.783,4.1.01.015-5.793h2.542v-4.1H396.4ZM392.3,314.489H388.1l4.211-7.339Z" transform="translate(-328.929 -260.063)" fill="#fff"/>
  <path id="Path_13301" data-name="Path 13301" d="M295.621,314.333a12.837,12.837,0,0,0,2.442-5.937,6.814,6.814,0,0,0-13.5-1.319l-.4,2.012,4.025.791.4-2.012a2.713,2.713,0,0,1,5.371.415,9.691,9.691,0,0,1-1.7,3.7,89.367,89.367,0,0,1-6.464,8.526l-.563.591-.013,3.485,13.625.042.013-4.1-7.75-.024C292.2,319.1,293.683,317.1,295.621,314.333Z" transform="translate(-245.317 -260.35)" fill="#fff"/>
  <g id="Group_12535" data-name="Group 12535">
    <g id="Group_12534" data-name="Group 12534">
      <path id="Path_13302" data-name="Path 13302" d="M136.069,111.449a22.7,22.7,0,0,0-20.518-20.517v4.179h-4.1V90.933a22.7,22.7,0,0,0-20.517,20.517h4.179v4.1H90.932a22.7,22.7,0,0,0,20.517,20.518v-4.18h4.1V119.318a6.159,6.159,0,0,1-4.715-.254l-4.146,4.146-2.9-2.9,4.146-4.146a6.167,6.167,0,0,1,3.513-8.481v-6.538h4.1v6.538a6.165,6.165,0,0,1,3.767,7.868h12.571v-4.1Z" transform="translate(-78.5 -78.5)" fill="#fff"/>
      <circle id="Ellipse_8" data-name="Ellipse 8" cx="2.068" cy="2.068" r="2.068" transform="translate(32.932 32.932)" fill="#fff"/>
      <path id="Path_13303" data-name="Path 13303" d="M59.749,10.251a35,35,0,0,0-49.5,49.5A34.771,34.771,0,0,0,35,70h2.051V61.763H35A26.763,26.763,0,1,1,61.763,35v2.051H70V35A34.771,34.771,0,0,0,59.749,10.251Z" fill="#fff"/>
    </g>
  </g>
</svg>
