<svg xmlns="http://www.w3.org/2000/svg" width="13.169" height="13.174" viewBox="0 0 13.169 13.174">
  <g id="confetti" transform="translate(-0.082)" opacity="0.41">
    <g id="Group_3" data-name="Group 3" transform="translate(0.082 3.113)">
      <g id="Group_2" data-name="Group 2" transform="translate(0)">
        <path id="Path_2" data-name="Path 2" d="M9.063,118.617a.219.219,0,1,0-.413.149l0,.008c.2.522.215.922.04,1.1-.212.212-.742.146-1.416-.177a9.388,9.388,0,0,1-2.429-1.813c-1.719-1.719-2.429-3.407-1.99-3.845a.6.6,0,0,1,.5-.116.219.219,0,0,0,.043-.437,1.011,1.011,0,0,0-.849.241c-.8.8.425,2.9,1.99,4.466a9.816,9.816,0,0,0,2.55,1.9,4.325,4.325,0,0,0,.529.212l-1.559.591a6.212,6.212,0,0,1-3.929-4.838.219.219,0,1,0-.434.068,6.645,6.645,0,0,0,3.769,4.995l-2.567.971a.216.216,0,0,0-.044-.052,3.058,3.058,0,0,1-1.133-2.125l-.1-1.233a.217.217,0,0,0-.231-.2H1.381a.219.219,0,0,0-.2.236v0l.1,1.233a3.5,3.5,0,0,0,1.161,2.312l-1.831.693L.943,121.6a.22.22,0,0,0-.427-.1l-.428,1.756a.219.219,0,0,0,.291.257L8.5,120.437a.2.2,0,0,0,.036-.023A.853.853,0,0,0,9,120.182C9.22,119.964,9.407,119.516,9.063,118.617Z" transform="translate(-0.082 -113.468)" fill="#fff"/>
      </g>
    </g>
    <g id="Group_5" data-name="Group 5" transform="translate(6.453 7.237)">
      <g id="Group_4" data-name="Group 4">
        <path id="Path_3" data-name="Path 3" d="M236.975,264.24a7.227,7.227,0,0,0-3.719-.361l-.784.132a.219.219,0,0,0,.072.433l.784-.131a6.784,6.784,0,0,1,3.492.339.226.226,0,0,0,.077.013.219.219,0,0,0,.077-.425Z" transform="translate(-232.294 -263.781)" fill="#fff"/>
      </g>
    </g>
    <g id="Group_7" data-name="Group 7" transform="translate(6.887 4.17)">
      <g id="Group_6" data-name="Group 6">
        <path id="Path_4" data-name="Path 4" d="M253.152,152.122a.22.22,0,0,0-.293-.1l-4.609,2.195a.22.22,0,0,0-.1.293h0a.219.219,0,0,0,.293.1h0l4.609-2.195A.22.22,0,0,0,253.152,152.122Z" transform="translate(-248.126 -151.997)" fill="#fff"/>
      </g>
    </g>
    <g id="Group_9" data-name="Group 9" transform="translate(4.321 1.314)">
      <g id="Group_8" data-name="Group 8">
        <path id="Path_5" data-name="Path 5" d="M155.668,48.063a.219.219,0,1,0-.43.087l0,.008a6.139,6.139,0,0,1-.328,3.711l-.319.766a.219.219,0,0,0,.118.286.216.216,0,0,0,.084.017.219.219,0,0,0,.2-.135l.319-.765A6.576,6.576,0,0,0,155.668,48.063Z" transform="translate(-154.576 -47.887)" fill="#fff"/>
      </g>
    </g>
    <g id="Group_11" data-name="Group 11" transform="translate(11.496 7.901)">
      <g id="Group_10" data-name="Group 10">
        <path id="Path_6" data-name="Path 6" d="M416.763,288a.658.658,0,1,0,.658.658A.658.658,0,0,0,416.763,288Zm0,.878a.219.219,0,1,1,.219-.219A.22.22,0,0,1,416.763,288.878Z" transform="translate(-416.105 -288)" fill="#fff"/>
      </g>
    </g>
    <g id="Group_13" data-name="Group 13" transform="translate(6.228 1.756)">
      <g id="Group_12" data-name="Group 12">
        <path id="Path_7" data-name="Path 7" d="M224.763,64a.658.658,0,1,0,.658.658A.658.658,0,0,0,224.763,64Zm0,.878a.219.219,0,1,1,.219-.219A.22.22,0,0,1,224.763,64.878Z" transform="translate(-224.105 -64)" fill="#fff"/>
      </g>
    </g>
    <g id="Group_15" data-name="Group 15" transform="translate(4.472)">
      <g id="Group_14" data-name="Group 14">
        <circle id="Ellipse_1" data-name="Ellipse 1" cx="0.439" cy="0.439" r="0.439" fill="#fff"/>
      </g>
    </g>
    <g id="Group_17" data-name="Group 17" transform="translate(10.837 1.097)">
      <g id="Group_16" data-name="Group 16">
        <path id="Path_8" data-name="Path 8" d="M392.324,40a.219.219,0,0,0-.219.219v.219a.219.219,0,0,0,.439,0v-.219A.22.22,0,0,0,392.324,40Z" transform="translate(-392.105 -40)" fill="#fff"/>
      </g>
    </g>
    <g id="Group_19" data-name="Group 19" transform="translate(10.837)">
      <g id="Group_18" data-name="Group 18">
        <path id="Path_9" data-name="Path 9" d="M392.324,0a.219.219,0,0,0-.219.219V.439a.219.219,0,0,0,.439,0V.219A.22.22,0,0,0,392.324,0Z" transform="translate(-392.105)" fill="#fff"/>
      </g>
    </g>
    <g id="Group_21" data-name="Group 21" transform="translate(11.276 0.658)">
      <g id="Group_20" data-name="Group 20">
        <path id="Path_10" data-name="Path 10" d="M408.544,24h-.219a.219.219,0,1,0,0,.439h.219a.219.219,0,0,0,0-.439Z" transform="translate(-408.105 -24)" fill="#fff"/>
      </g>
    </g>
    <g id="Group_23" data-name="Group 23" transform="translate(10.179 0.658)">
      <g id="Group_22" data-name="Group 22">
        <path id="Path_11" data-name="Path 11" d="M368.544,24h-.219a.219.219,0,1,0,0,.439h.219a.219.219,0,1,0,0-.439Z" transform="translate(-368.105 -24)" fill="#fff"/>
      </g>
    </g>
    <g id="Group_25" data-name="Group 25" transform="translate(8.199 2.41)">
      <g id="Group_24" data-name="Group 24">
        <path id="Path_12" data-name="Path 12" d="M297.258,87.832h-1.1a.219.219,0,0,0-.219.219v1.1a.219.219,0,0,0,.219.219h1.1a.219.219,0,0,0,.219-.219v-1.1A.219.219,0,0,0,297.258,87.832Zm-.219,1.1h-.663v-.663h.663Z" transform="translate(-295.937 -87.832)" fill="#fff"/>
      </g>
    </g>
    <g id="Group_27" data-name="Group 27" transform="translate(5.35 4.173)">
      <g id="Group_26" data-name="Group 26">
        <path id="Path_13" data-name="Path 13" d="M194.678,152.175a.219.219,0,0,0-.3-.016l-2.195,1.975a.219.219,0,1,0,.294.326l2.195-1.975A.219.219,0,0,0,194.678,152.175Z" transform="translate(-192.107 -152.105)" fill="#fff"/>
      </g>
    </g>
    <g id="Group_29" data-name="Group 29" transform="translate(11.715 5.048)">
      <g id="Group_28" data-name="Group 28">
        <path id="Path_14" data-name="Path 14" d="M424.324,184a.219.219,0,0,0-.219.219v.219a.219.219,0,1,0,.439,0v-.219A.22.22,0,0,0,424.324,184Z" transform="translate(-424.105 -184)" fill="#fff"/>
      </g>
    </g>
    <g id="Group_31" data-name="Group 31" transform="translate(12.339 4.794)">
      <g id="Group_30" data-name="Group 30">
        <path id="Path_15" data-name="Path 15" d="M447.363,174.939l-.155-.155a.219.219,0,0,0-.31.31l.155.155a.219.219,0,0,0,.31-.31Z" transform="translate(-446.836 -174.722)" fill="#fff"/>
      </g>
    </g>
    <g id="Group_33" data-name="Group 33" transform="translate(12.593 4.17)">
      <g id="Group_32" data-name="Group 32">
        <path id="Path_16" data-name="Path 16" d="M456.544,152h-.219a.219.219,0,0,0,0,.439h.219a.219.219,0,1,0,0-.439Z" transform="translate(-456.105 -152)" fill="#fff"/>
      </g>
    </g>
    <g id="Group_35" data-name="Group 35" transform="translate(12.336 3.397)">
      <g id="Group_34" data-name="Group 34">
        <path id="Path_17" data-name="Path 17" d="M447.263,123.88a.22.22,0,0,0-.3,0l-.155.155a.219.219,0,0,0,.155.375h0a.219.219,0,0,0,.155-.064l.155-.155A.219.219,0,0,0,447.263,123.88Z" transform="translate(-446.739 -123.819)" fill="#fff"/>
      </g>
    </g>
    <g id="Group_37" data-name="Group 37" transform="translate(11.715 3.073)">
      <g id="Group_36" data-name="Group 36">
        <path id="Path_18" data-name="Path 18" d="M424.324,112a.219.219,0,0,0-.219.219v.219a.219.219,0,1,0,.439,0v-.219A.22.22,0,0,0,424.324,112Z" transform="translate(-424.105 -112)" fill="#fff"/>
      </g>
    </g>
    <g id="Group_39" data-name="Group 39" transform="translate(10.942 3.397)">
      <g id="Group_38" data-name="Group 38">
        <path id="Path_19" data-name="Path 19" d="M396.443,124.035l-.155-.155a.219.219,0,0,0-.31.31l.155.155a.219.219,0,0,0,.31-.31Z" transform="translate(-395.916 -123.818)" fill="#fff"/>
      </g>
    </g>
    <g id="Group_41" data-name="Group 41" transform="translate(0.082 0.01)">
      <g id="Group_40" data-name="Group 40" transform="translate(0)">
        <path id="Path_20" data-name="Path 20" d="M2.718,1.3a.219.219,0,0,0-.177-.149L1.9,1.057,1.61.473a.228.228,0,0,0-.394,0l-.289.584-.644.094a.219.219,0,0,0-.122.374l.466.454-.11.642a.219.219,0,0,0,.319.232l.576-.3.576.3a.219.219,0,0,0,.318-.231L2.2,1.979l.466-.454A.219.219,0,0,0,2.718,1.3Zm-.911.446a.219.219,0,0,0-.063.194l.054.317-.284-.15a.22.22,0,0,0-.2,0l-.285.15.054-.317a.219.219,0,0,0-.062-.194L.786,1.521,1.1,1.475a.219.219,0,0,0,.165-.12l.142-.288.142.288a.219.219,0,0,0,.165.12l.318.046Z" transform="translate(-0.095 -0.361)" fill="#fff"/>
      </g>
    </g>
    <g id="Group_43" data-name="Group 43" transform="translate(9.965 9.439)">
      <g id="Group_42" data-name="Group 42">
        <path id="Path_21" data-name="Path 21" d="M362.84,345.594h0l-.09-.136a3.312,3.312,0,0,0-2.2-1.425.219.219,0,0,0-.072.433,2.872,2.872,0,0,1,1.675.934,1.3,1.3,0,0,0-.878.6.878.878,0,0,0,1.533.856,1.273,1.273,0,0,0,.142-.563,1.072,1.072,0,0,1,.048,1.14.219.219,0,1,0,.378.224l.006-.01A1.532,1.532,0,0,0,362.84,345.594Zm-.42,1.05a.439.439,0,1,1-.769-.424l0,0a.823.823,0,0,1,.594-.387.223.223,0,0,1,.11.025C362.542,345.959,362.552,346.407,362.419,346.644Z" transform="translate(-360.294 -344.031)" fill="#fff"/>
      </g>
    </g>
  </g>
</svg>
