<svg id="clock" xmlns="http://www.w3.org/2000/svg" width="14.666" height="14.666" viewBox="0 0 14.666 14.666">
  <g id="Group_12746" data-name="Group 12746" transform="translate(0 0)">
    <g id="Group_12745" data-name="Group 12745">
      <path id="Path_13456" data-name="Path 13456" d="M2.148,2.148a7.333,7.333,0,0,1,10.37,10.37A7.333,7.333,0,0,1,2.148,2.148ZM7.333,13.226a5.9,5.9,0,0,0,5.894-5.894c0-.005,0-.011,0-.016s0,0,0,0,0,0,0-.007A5.9,5.9,0,0,0,7.413,1.44h-.08a5.894,5.894,0,1,0,0,11.787Z" transform="translate(0 0)" fill="#7d7d7d"/>
    </g>
  </g>
  <g id="Group_12748" data-name="Group 12748" transform="translate(2.32 2.321)">
    <g id="Group_12747" data-name="Group 12747">
      <path id="Path_13457" data-name="Path 13457" d="M81.678,86.395a.434.434,0,1,0,0-.868h-.523a5.034,5.034,0,0,1,4.626-4.5v.455a.434.434,0,1,0,.868,0v-.445a5.034,5.034,0,0,1,4.511,4.548h-.468a.434.434,0,1,0,0,.868h.472a5.034,5.034,0,0,1-4.575,4.593V90.5a.434.434,0,0,0-.868,0v.55a5.034,5.034,0,0,1-4.579-4.653Zm2.72-1.5,1.45,1.45a.434.434,0,0,0,.614,0l2.523-2.523a.434.434,0,0,0-.614-.614l-2.217,2.217-1.143-1.143a.434.434,0,1,0-.614.614Z" transform="translate(-81.142 -81.029)" fill="#7d7d7d"/>
    </g>
  </g>
</svg>
