<svg xmlns="http://www.w3.org/2000/svg" width="20.621" height="23.605" viewBox="0 0 20.621 23.605">
  <g id="noun_book_address_2871939" data-name="noun_book address_2871939" transform="translate(-6.32)">
    <path id="Path_13341" data-name="Path 13341" d="M6.32,0V4.029H8.681V5.446H6.32v5.649H8.681v1.416H6.32v5.646H8.681v1.416H6.32v4.032H26.941V0ZM16.631,6.7a3.246,3.246,0,1,1-3.243,3.245A3.246,3.246,0,0,1,16.631,6.7Zm5.918,11.623a14.265,14.265,0,0,0-11.831,0,7.79,7.79,0,0,1-.836-1.18,15.681,15.681,0,0,1,13.495,0,7.587,7.587,0,0,1-.829,1.18Z" fill="#4d4d4d"/>
  </g>
</svg>
