<svg xmlns="http://www.w3.org/2000/svg" width="26.001" height="27.837" viewBox="0 0 26.001 27.837">
  <g id="user_1_" data-name="user (1)" transform="translate(-48.043 -32)">
    <path id="Path_13291" data-name="Path 13291" d="M256,433.262l2.938-.678-2.26-2.26Z" transform="translate(-194.955 -373.425)" fill="#fff"/>
    <path id="Path_13292" data-name="Path 13292" d="M60.462,222.9l.486-2.107c0-.005,0-.01,0-.015s0-.017.007-.026l.008-.023.009-.022.012-.025.009-.018.015-.025.01-.016.018-.024.012-.015.02-.022.008-.009L67.633,214a10.06,10.06,0,0,0-9.091-6,9.721,9.721,0,0,0-7.4,3.43,13.633,13.633,0,0,0-3.1,8.769c1.148.579,5.861,2.8,10.5,2.8a18.628,18.628,0,0,0,1.92-.1Z" transform="translate(0 -164.998)" fill="#fff"/>
    <path id="Path_13293" data-name="Path 13293" d="M0,0H11V4H0Z" transform="translate(62.139 55.907) rotate(-45)" fill="#fff"/>
    <circle id="Ellipse_4" data-name="Ellipse 4" cx="5.001" cy="5.001" r="5.001" transform="translate(53.541 32)" fill="#fff"/>
    <path id="Path_13294" data-name="Path 13294" d="M412.788,271.327a2,2,0,0,0-3.415-1.414l2.829,2.829A1.987,1.987,0,0,0,412.788,271.327Z" transform="translate(-338.744 -222.492)" fill="#fff"/>
  </g>
</svg>
