<svg id="Group_12740" data-name="Group 12740" xmlns="http://www.w3.org/2000/svg" width="16.993" height="16.704" viewBox="0 0 16.993 16.704">
  <rect id="Rectangle_2088" data-name="Rectangle 2088" width="5.472" height="2.391" transform="translate(10.066 14.101) rotate(-45)" fill="#ef1730"/>
  <rect id="Rectangle_2089" data-name="Rectangle 2089" width="1.487" height="2.391" transform="translate(14.251 9.916) rotate(-45)" fill="#ef1730"/>
  <path id="Path_13445" data-name="Path 13445" d="M54.134,84.039l-.461,2.152,2.152-.461.136-.136L54.27,83.9Z" transform="translate(-44.52 -69.486)" fill="#ef1730"/>
  <path id="Path_13446" data-name="Path 13446" d="M7.72,19.582H5.434A2.753,2.753,0,0,1,2.5,17.064V5.824A2.753,2.753,0,0,1,5.434,3.306H15.563A2.753,2.753,0,0,1,18.5,5.824V8.455a.857.857,0,0,1-1.713,0V5.824c0-.381-.5-.8-1.22-.8H5.434c-.719,0-1.22.424-1.22.8V17.064c0,.381.5.8,1.22.8H7.72a.857.857,0,1,1,0,1.714Z" transform="translate(-2.5 -3.306)" fill="#ef1730"/>
  <rect id="Rectangle_2090" data-name="Rectangle 2090" width="1.713" height="7.499" transform="translate(3.831 6.424) rotate(-88.363)" fill="#ef1730"/>
  <rect id="Rectangle_2091" data-name="Rectangle 2091" width="5.354" height="1.713" transform="translate(3.855 9.209)" fill="#ef1730"/>
</svg>
