<svg xmlns="http://www.w3.org/2000/svg" width="11.929" height="12.733" viewBox="0 0 11.929 12.733">
  <g id="gender" transform="translate(-16.179)">
    <g id="Group_1" data-name="Group 1" transform="translate(16.179)">
      <path id="Path_1" data-name="Path 1" d="M25.822,0V.78H26.7L24.986,2.406a3.34,3.34,0,0,0-5.317.721c-.049,0-.1,0-.147,0a3.343,3.343,0,0,0-.39,6.663v1.036H17.965v.78h1.167v1.131h.78V11.6H21.13v-.78H19.912V9.787a3.349,3.349,0,0,0,2.537-1.706c.049,0,.1,0,.147,0a3.342,3.342,0,0,0,2.869-5.058L27.328,1.26v.968h.78V0Zm-6.3,9.031a2.563,2.563,0,0,1-.164-5.121A3.345,3.345,0,0,0,21.62,7.939,2.562,2.562,0,0,1,19.522,9.031Zm2.448-1.8a2.564,2.564,0,0,1-1.823-3.246A2.564,2.564,0,0,1,21.97,7.227Zm.79.072A3.345,3.345,0,0,0,20.5,3.27,2.563,2.563,0,1,1,22.76,7.3Z" transform="translate(-16.179)" fill="#7d7d7d"/>
    </g>
  </g>
</svg>
