<svg xmlns="http://www.w3.org/2000/svg" width="11" height="14" viewBox="0 0 11 14">
  <g id="Group_12382" data-name="Group 12382" transform="translate(0.61 -5)">
    <path id="Path_13265" data-name="Path 13265" d="M61.7,5h-.5V4.5a4.5,4.5,0,1,0-9,0V5h-.5a.5.5,0,0,0-.5.5v8a.5.5,0,0,0,.5.5h10a.5.5,0,0,0,.5-.5v-8A.5.5,0,0,0,61.7,5Zm-8.5-.5a3.5,3.5,0,1,1,7,0V5h-7Zm8,8.5h-9V6h9Z" transform="translate(-51.81 5)" fill="#7d7d7d"/>
    <path id="Path_13266" data-name="Path 13266" d="M190.67,257a1.5,1.5,0,1,0-1.914,1.909V260a.5.5,0,1,0,1,0v-1.092A1.5,1.5,0,0,0,190.67,257Zm-1.414,1a.5.5,0,1,1,.5-.5A.5.5,0,0,1,189.255,258Z" transform="translate(-184.366 -243.5)" fill="#7d7d7d"/>
  </g>
</svg>
