<svg xmlns="http://www.w3.org/2000/svg" width="40.004" height="60.273" viewBox="0 0 40.004 60.273">
  <g id="man" transform="translate(-78.028 0)">
    <path id="Path_13269" data-name="Path 13269" d="M118.032,54.135v5.1a1.039,1.039,0,0,1-1.039,1.039H79.067a1.039,1.039,0,0,1-1.039-1.039v-5.1a9.687,9.687,0,0,1,9.688-9.685A5.378,5.378,0,0,0,92.231,42a6.1,6.1,0,0,0,.864-3.807l.019-.048a12.86,12.86,0,0,1-7.942-11.884v-.407a3.2,3.2,0,0,1-3.247-3.187v-5.4c-.042-1.879.044-8.507,4.832-13.122C92.323-1.219,101.145-.78,107.535,2.09a.261.261,0,0,1-.009.478l-1.666.686a.26.26,0,0,0,.071.5l.809.087a13.11,13.11,0,0,1,9.7,6.02.279.279,0,0,1-.034.321,7.858,7.858,0,0,0-2.146,5.4v7.088a3.188,3.188,0,0,1-3.187,3.187h-.19v.407a12.86,12.86,0,0,1-7.942,11.884l.019.048A6.1,6.1,0,0,0,103.829,42a5.378,5.378,0,0,0,4.515,2.45,9.687,9.687,0,0,1,9.688,9.685Z" transform="translate(0)" fill="#ffdfba"/>
    <path id="Path_13270" data-name="Path 13270" d="M118.032,335.5v5.1a1.039,1.039,0,0,1-1.039,1.039H79.067a1.039,1.039,0,0,1-1.039-1.039v-5.1a9.687,9.687,0,0,1,9.687-9.685,5.378,5.378,0,0,0,4.515-2.45,8.916,8.916,0,0,0,11.6,0,5.378,5.378,0,0,0,4.515,2.45,9.687,9.687,0,0,1,9.687,9.685Z" transform="translate(0 -281.366)" fill="#fe4f60"/>
    <path id="Path_13271" data-name="Path 13271" d="M142.513,9.861a.276.276,0,0,1-.034.32,7.863,7.863,0,0,0-2.145,5.4v7.088a3.194,3.194,0,0,1-3.377,3.187V17.832a6.234,6.234,0,0,0-6.234-6.234H117.474a6.234,6.234,0,0,0-6.234,6.234v8.023a3.2,3.2,0,0,1-3.247-3.187v-5.4c-.042-1.879.044-8.507,4.832-13.122,5.566-5.366,14.389-4.926,20.778-2.056a.26.26,0,0,1-.008.478l-1.667.686a.26.26,0,0,0,.071.5l.809.087a13.1,13.1,0,0,1,9.7,6.021Z" transform="translate(-26.068 -0.001)" fill="#42434d"/>
    <path id="Path_13272" data-name="Path 13272" d="M158.745,103.95a12.862,12.862,0,1,1-25.717-.407V95.52a6.234,6.234,0,0,1,6.234-6.234h13.248a6.234,6.234,0,0,1,6.234,6.234Z" transform="translate(-47.856 -77.689)" fill="#ffebd2"/>
    <path id="Path_13273" data-name="Path 13273" d="M285.184,433.134h-3.117a1.039,1.039,0,0,1,0-2.078h3.117a1.039,1.039,0,0,1,0,2.078Z" transform="translate(-176.634 -375.069)" fill="#fff"/>
    <path id="Path_13274" data-name="Path 13274" d="M142.975,125.873a2.053,2.053,0,0,1-1.867,3.637,12.861,12.861,0,0,1-8.08-11.94V109.14a6.207,6.207,0,0,1,1.094-3.529,1.536,1.536,0,0,1,2.8.931v8.429A12.765,12.765,0,0,0,142.975,125.873Z" transform="translate(-47.856 -91.309)" fill="#fff3e4"/>
    <path id="Path_13275" data-name="Path 13275" d="M203.063,295.867a12.894,12.894,0,0,1-10.165,0,8.049,8.049,0,0,0,.147-2.133l.019-.048a12.885,12.885,0,0,0,9.832,0l.02.048A8.047,8.047,0,0,0,203.063,295.867Z" transform="translate(-99.95 -255.541)" fill="#ffd6a6"/>
    <path id="Path_13276" data-name="Path 13276" d="M92.949,328.953a5.283,5.283,0,0,1-1.548.239,9.713,9.713,0,0,0-9.737,9.652v.976a1.818,1.818,0,0,1-1.818,1.818h-.779a1.039,1.039,0,0,1-1.039-1.039v-5.1a9.687,9.687,0,0,1,9.687-9.685,5.378,5.378,0,0,0,4.515-2.45,8.988,8.988,0,0,0,1.235.886A2.6,2.6,0,0,1,92.949,328.953Z" transform="translate(0 -281.366)" fill="#ff6d7a"/>
    <path id="Path_13277" data-name="Path 13277" d="M259.151,328.953a5.283,5.283,0,0,0,1.548.239,9.713,9.713,0,0,1,9.737,9.652v.976a1.818,1.818,0,0,0,1.818,1.818h.779a1.039,1.039,0,0,0,1.039-1.039v-5.1a9.687,9.687,0,0,0-9.687-9.685,5.378,5.378,0,0,1-4.515-2.45,8.989,8.989,0,0,1-1.235.886A2.6,2.6,0,0,0,259.151,328.953Z" transform="translate(-156.04 -281.366)" fill="#e84857"/>
    <path id="Path_13278" data-name="Path 13278" d="M133.594,2.569c-1.527.629-1.745.767-2.274.685-8.53-1.322-16.014,2.207-18.555,10.493h0a6.2,6.2,0,0,0-1.525,4.084V22.7a1.624,1.624,0,1,1-3.247-.038v-5.4c-.042-1.879.044-8.507,4.832-13.122C118.391-1.219,127.213-.78,133.6,2.091a.261.261,0,0,1-.009.478Z" transform="translate(-26.068 0)" fill="#4d4e59"/>
  </g>
</svg>
