<svg xmlns="http://www.w3.org/2000/svg" width="16" height="19.411" viewBox="0 0 16 19.411">
  <g id="icon" transform="translate(-16 -136)">
    <path id="Vector" d="M0,0A2.964,2.964,0,0,0,4.941,0Z" transform="translate(21.074 154.084)" fill="#fff"/>
    <path id="Vector-2" data-name="Vector" d="M13.289,11.612A1.365,1.365,0,0,1,12.938,11,5.365,5.365,0,0,1,9.969.716a4.488,4.488,0,0,0-5.506.5A4.666,4.666,0,0,0,2.986,4.184c-.83,6.9-.792,6.587-.793,6.6a1.364,1.364,0,0,1-.392.83L.732,12.681A2.5,2.5,0,0,0,2.5,16.947H12.591a2.5,2.5,0,0,0,1.767-4.266Z" transform="translate(16 136)" fill="#fff"/>
    <path id="Vector-3" data-name="Vector" d="M8.436,4.226a4.236,4.236,0,0,0-5-4.152h0A4.228,4.228,0,1,0,5.224,8.334h0A4.236,4.236,0,0,0,8.436,4.226ZM5.1,5.742a.569.569,0,0,1-1.137,0V3.278H3.427a.569.569,0,1,1,0-1.137h1.1a.569.569,0,0,1,.569.569Z" transform="translate(23.564 137.536)" fill="#fff"/>
  </g>
</svg>
