<svg xmlns="http://www.w3.org/2000/svg" width="17" height="19.411" viewBox="0 0 17 19.411">
  <g id="icon" transform="translate(-16 -217)">
    <path id="Vector" d="M0,0A2.964,2.964,0,0,0,4.941,0Z" transform="translate(21.074 235.084)" fill="#fff"/>
    <path id="Vector-2" data-name="Vector" d="M13.289,11.612A1.365,1.365,0,0,1,12.938,11,5.365,5.365,0,0,1,9.969.716a4.488,4.488,0,0,0-5.506.5A4.666,4.666,0,0,0,2.986,4.184c-.83,6.9-.792,6.587-.793,6.6a1.364,1.364,0,0,1-.392.83L.732,12.681A2.5,2.5,0,0,0,2.5,16.947H12.591a2.5,2.5,0,0,0,1.767-4.266Z" transform="translate(16 217)" fill="#fff"/>
    <circle id="Ellipse_33" data-name="Ellipse 33" cx="4.5" cy="4.5" r="4.5" transform="translate(24 218)" fill="#fff"/>
  </g>
</svg>
