<svg xmlns="http://www.w3.org/2000/svg" width="14.082" height="14.666" viewBox="0 0 14.082 14.666">
  <path id="Path_13467" data-name="Path 13467" d="M12.213,19.657c.914-.262,5.787-5.175,6.29-6.29s.864-4.428-.06-5.352a3.258,3.258,0,0,0-2.1-.568A1.878,1.878,0,0,1,19.788,6.5c.446.653.778,1.947-.179,4.41a.326.326,0,1,0,.608.236c1.06-2.728.645-4.232.11-5.014a2.548,2.548,0,0,0-4.658,1.634,3.052,3.052,0,0,0,.783,2.091.326.326,0,1,0,.473-.448,2.093,2.093,0,0,1-.392-.607.952.952,0,1,1-.694,1.238,3.7,3.7,0,0,1-.756-2.274c0-.089.006-.176.012-.264a7.281,7.281,0,0,0-2,.452c-1.115.5-6.028,5.376-6.29,6.29-.115.4.979,1.941,2.225,3.187S11.812,19.772,12.213,19.657ZM9.994,14.784,9.9,14.166a.475.475,0,0,1,.941-.138l.091.618a1.079,1.079,0,0,0,.3.578,1.061,1.061,0,0,0,.294.217.5.5,0,0,0,.537,0,.534.534,0,0,0,.113-.579l-.4-1.429a1.462,1.462,0,0,1,.444-1.582,1.431,1.431,0,0,1,1.537-.1,1.882,1.882,0,0,1,.175.1l.257-.257a.475.475,0,1,1,.672.672l-.263.263a1.966,1.966,0,0,1,.274.735l.091.618a.475.475,0,1,1-.941.138l-.091-.618a1.079,1.079,0,0,0-.294-.577,1.065,1.065,0,0,0-.3-.218.5.5,0,0,0-.536,0,.533.533,0,0,0-.113.579l.4,1.429a1.463,1.463,0,0,1-.443,1.582,1.432,1.432,0,0,1-1.537.1,1.89,1.89,0,0,1-.176-.1l-.256.256a.475.475,0,0,1-.672-.672l.261-.261A1.967,1.967,0,0,1,9.994,14.784Z" transform="translate(-6.793 -5)" fill="#7d7d7d"/>
</svg>
