<svg xmlns="http://www.w3.org/2000/svg" width="60.558" height="60.274" viewBox="0 0 60.558 60.274">
  <g id="flat" transform="translate(-32 -42.107)">
    <path id="Path_13317" data-name="Path 13317" d="M67.686,344l19.99,9.995a8.11,8.11,0,0,1,4.4,6.107l.48,3.363H32l.48-3.363a8.11,8.11,0,0,1,4.4-6.107L56.872,344Z" transform="translate(0 -261.085)" fill="#026ca2"/>
    <path id="Path_13318" data-name="Path 13318" d="M216,344h10.814v19.465H216Z" transform="translate(-159.128 -261.085)" fill="#cbcbcb"/>
    <path id="Path_13319" data-name="Path 13319" d="M209.081,312v4.326L208,319.57v1.081h12.977V319.57l-1.081-3.244V312Z" transform="translate(-152.209 -233.41)" fill="#fdc9a6"/>
    <path id="Path_13320" data-name="Path 13320" d="M226.814,312v2.655l-.034.023a9.584,9.584,0,0,1-10.78-.023V312Z" transform="translate(-159.128 -233.41)" fill="#fdc9a6"/>
    <path id="Path_13321" data-name="Path 13321" d="M226.814,312v2.655l-.034.023a9.584,9.584,0,0,1-10.78-.023V312Z" transform="translate(-159.128 -233.41)" fill="#e6af89"/>
    <path id="Path_13322" data-name="Path 13322" d="M72,453.407v-4.326a1.081,1.081,0,0,1,2.163,0v4.326Z" transform="translate(-34.593 -351.027)" fill="#015078"/>
    <path id="Path_13323" data-name="Path 13323" d="M424,453.407v-4.326a1.081,1.081,0,0,1,2.163,0v4.326Z" transform="translate(-339.011 -351.027)" fill="#015078"/>
    <path id="Path_13324" data-name="Path 13324" d="M230.857,377.7l1.236,3.708h4.326l1.236-3.708-3.4-1.7Z" transform="translate(-171.977 -288.759)" fill="#0296e5"/>
    <path id="Path_13325" data-name="Path 13325" d="M233.081,416,232,425.733h6.488L237.407,416Z" transform="translate(-172.965 -323.352)" fill="#026ca2"/>
    <path id="Path_13326" data-name="Path 13326" d="M175.074,59.655l.462-1.838a12.424,12.424,0,0,0-2.645-11.15A11.373,11.373,0,0,0,161.208,42.4l-2.114.492a10.279,10.279,0,0,0-6.869,5.416h-.287a5.914,5.914,0,0,0-5.855,6.751l.735,5.145.394,3.244h26.655l.89-2.7q.178-.54.316-1.091Z" transform="translate(-98.612 0)" fill="#55300b"/>
    <path id="Path_13327" data-name="Path 13327" d="M186.814,140.566a9.584,9.584,0,0,1-8.9-6.024A26.786,26.786,0,0,1,176,124.594v-7.818l3.244-5.506a18.394,18.394,0,0,0,13.124,5.506h5.26v7.818a26.787,26.787,0,0,1-1.916,9.95,9.584,9.584,0,0,1-8.9,6.023Z" transform="translate(-124.535 -59.814)" fill="#fdc9a6"/>
    <g id="Group_12556" data-name="Group 12556" transform="translate(54.709 59.124)">
      <path id="Path_13328" data-name="Path 13328" d="M276.326,170.163h-3.244a1.081,1.081,0,0,1,0-2.163h3.244a1.081,1.081,0,1,1,0,2.163Z" transform="translate(-262.267 -168)" fill="#55300b"/>
      <circle id="Ellipse_12" data-name="Ellipse 12" cx="1.352" cy="1.352" r="1.352" transform="translate(10.814 3.244)" fill="#55300b"/>
      <path id="Path_13329" data-name="Path 13329" d="M204.326,170.163h-3.244a1.081,1.081,0,0,1,0-2.163h3.244a1.081,1.081,0,0,1,0,2.163Z" transform="translate(-200 -168)" fill="#55300b"/>
      <circle id="Ellipse_13" data-name="Ellipse 13" cx="1.352" cy="1.352" r="1.352" transform="translate(1.622 3.244)" fill="#55300b"/>
    </g>
    <path id="Path_13330" data-name="Path 13330" d="M237.407,266.163h-4.326a1.081,1.081,0,1,1,0-2.163h4.326a1.081,1.081,0,1,1,0,2.163Z" transform="translate(-172.965 -191.899)" fill="#e6af89"/>
    <path id="Path_13331" data-name="Path 13331" d="M243.244,213.407h-2.163A1.081,1.081,0,0,1,240,212.326v-3.244a1.081,1.081,0,0,1,2.163,0v2.163h1.081a1.081,1.081,0,0,1,0,2.163Z" transform="translate(-179.884 -143.469)" fill="#e6af89"/>
    <path id="Path_13332" data-name="Path 13332" d="M148.326,176h-1.494A2.831,2.831,0,0,0,144,178.831v1.908a2.831,2.831,0,0,0,2.831,2.831h1.9Z" transform="translate(-96.86 -115.794)" fill="#fdc9a6"/>
    <path id="Path_13333" data-name="Path 13333" d="M333.406,176H334.9a2.831,2.831,0,0,1,2.831,2.831v1.908a2.831,2.831,0,0,1-2.831,2.831H333Z" transform="translate(-260.312 -115.794)" fill="#fdc9a6"/>
    <path id="Path_13334" data-name="Path 13334" d="M209.081,344l5.407,4.326L208,351.57v-4.326Z" transform="translate(-152.209 -261.085)" fill="#ebebeb"/>
    <path id="Path_13335" data-name="Path 13335" d="M261.407,344,256,348.326l6.488,3.244v-4.326Z" transform="translate(-193.721 -261.085)" fill="#ebebeb"/>
    <path id="Path_13336" data-name="Path 13336" d="M160.651,363.465h-5.407L152,353.733,160.651,344Z" transform="translate(-103.779 -261.085)" fill="#0296e5"/>
    <path id="Path_13337" data-name="Path 13337" d="M296,363.465h5.407l3.244-9.733L296,344Z" transform="translate(-228.314 -261.085)" fill="#0296e5"/>
  </g>
</svg>
