<svg xmlns="http://www.w3.org/2000/svg" width="14.666" height="12.445" viewBox="0 0 14.666 12.445">
  <path id="Path_13465" data-name="Path 13465" d="M1.848,20.668l1.3-.06a.688.688,0,0,0,.579-.361.5.5,0,0,0,.328.124h.022l5.483.364h.211a3.531,3.531,0,0,0,2.017-.633l3.479-2.449a.678.678,0,0,0,.1-1.024l-.015-.015a.688.688,0,0,0-.859-.106c-1.091.667-3.24,1.957-3.24,1.957a1.792,1.792,0,0,1-.888.26l-2.441.012h0a.163.163,0,0,1-.013-.324l2.5-.045a.585.585,0,0,0,.019-1.163L8.946,17.1,7.84,16.9a3.26,3.26,0,0,1-.709-.188,4.7,4.7,0,0,0-3.583-.149.7.7,0,0,0-.621-.321L1.634,16.3a.76.76,0,0,0-.747.785l.149,2.867a.769.769,0,0,0,.811.715Zm.5-1.521a.424.424,0,1,1-.448.414A.432.432,0,0,1,2.351,19.146Zm8.895-1.877,2.025-1.045a.644.644,0,0,1,.747.09c-.9.551-1.941,1.183-2.629,1.607a.988.988,0,0,0-.136-.644Zm1.127-1.3a.651.651,0,0,1,.358.112l-1.777.884a.985.985,0,0,0-.5-.172l-.252-.018,1.91-.747a.651.651,0,0,1,.264-.06Zm-6.771-3,.6.1a3.089,3.089,0,0,0,.308.747l-.348.5a.458.458,0,0,0,.051.587l.355.358a.458.458,0,0,0,.587.051l.5-.349a3.08,3.08,0,0,0,.747.308l.1.6a.458.458,0,0,0,.448.379h.5a.458.458,0,0,0,.448-.379l.1-.6a3.074,3.074,0,0,0,.747-.308l.5.348a.458.458,0,0,0,.582-.049l.357-.357a.458.458,0,0,0,.051-.587l-.348-.5a3.085,3.085,0,0,0,.308-.747l.6-.1a.458.458,0,0,0,.379-.448v-.511a.458.458,0,0,0-.379-.448l-.6-.1a3.083,3.083,0,0,0-.308-.747l.348-.5a.458.458,0,0,0-.051-.587l-.357-.357a.458.458,0,0,0-.587-.051l-.5.348A3.08,3.08,0,0,0,10,9.267l-.1-.6a.458.458,0,0,0-.448-.379h-.5a.458.458,0,0,0-.448.379l-.1.6a3.088,3.088,0,0,0-.747.308l-.5-.348a.458.458,0,0,0-.587.051l-.357.357a.458.458,0,0,0-.051.587l.348.5a3.089,3.089,0,0,0-.308.747l-.6.1a.458.458,0,0,0-.379.448v.5a.458.458,0,0,0,.382.452ZM9.2,10.9a1.374,1.374,0,1,1-1.374,1.374A1.374,1.374,0,0,1,9.2,10.9Z" transform="translate(-0.887 -8.29)" fill="#7d7d7d"/>
</svg>
