<svg xmlns="http://www.w3.org/2000/svg" width="23.425" height="23.431" viewBox="0 0 23.425 23.431">
  <path id="Icon_ionic-ios-settings" data-name="Icon ionic-ios-settings" d="M25.991,16.212A3.014,3.014,0,0,1,27.925,13.4a11.948,11.948,0,0,0-1.446-3.483,3.055,3.055,0,0,1-1.226.262A3.008,3.008,0,0,1,22.5,5.946,11.912,11.912,0,0,0,19.025,4.5a3.012,3.012,0,0,1-5.624,0A11.948,11.948,0,0,0,9.917,5.946a3.008,3.008,0,0,1-2.751,4.234A2.955,2.955,0,0,1,5.94,9.917,12.212,12.212,0,0,0,4.5,13.406a3.013,3.013,0,0,1,.006,5.624,11.948,11.948,0,0,0,1.446,3.483,3.009,3.009,0,0,1,3.971,3.971,12.018,12.018,0,0,0,3.483,1.446,3.006,3.006,0,0,1,5.612,0A11.948,11.948,0,0,0,22.5,26.485a3.012,3.012,0,0,1,3.971-3.971,12.018,12.018,0,0,0,1.446-3.483A3.029,3.029,0,0,1,25.991,16.212Zm-9.724,4.874a4.88,4.88,0,1,1,4.88-4.88A4.879,4.879,0,0,1,16.267,21.086Z" transform="translate(-4.5 -4.5)" fill="#4d4d4d"/>
</svg>
