<svg xmlns="http://www.w3.org/2000/svg" width="26.778" height="23.431" viewBox="0 0 26.778 23.431">
  <g id="store" transform="translate(0 -32)">
    <g id="Group_12546" data-name="Group 12546" transform="translate(0 32)">
      <g id="Group_12545" data-name="Group 12545">
        <path id="Path_13313" data-name="Path 13313" d="M26.753,39.329l-1.515-6.062A1.672,1.672,0,0,0,23.615,32H3.165A1.676,1.676,0,0,0,1.54,33.267L.025,39.329a.819.819,0,0,0-.025.2,4.088,4.088,0,0,0,3.975,4.184A3.905,3.905,0,0,0,7.113,42.1a3.852,3.852,0,0,0,6.276,0,3.852,3.852,0,0,0,6.276,0A3.9,3.9,0,0,0,22.8,43.715a4.088,4.088,0,0,0,3.975-4.184A.819.819,0,0,0,26.753,39.329Z" transform="translate(0 -32)" fill="#fff"/>
      </g>
    </g>
    <g id="Group_12548" data-name="Group 12548" transform="translate(1.674 44.405)">
      <g id="Group_12547" data-name="Group 12547">
        <path id="Path_13314" data-name="Path 13314" d="M53.13,270.168a5.476,5.476,0,0,1-3.138-.984,5.632,5.632,0,0,1-6.276,0,5.632,5.632,0,0,1-6.276,0,5.433,5.433,0,0,1-5.439.464v8.889a1.674,1.674,0,0,0,1.674,1.674h6.695v-6.695h6.695v6.695h6.695a1.674,1.674,0,0,0,1.674-1.674v-8.889A5.43,5.43,0,0,1,53.13,270.168Z" transform="translate(-32 -269.184)" fill="#fff"/>
      </g>
    </g>
  </g>
</svg>
