<svg xmlns="http://www.w3.org/2000/svg" width="14" height="14" viewBox="0 0 14 14">
  <g id="user" transform="translate(0)">
    <g id="Group_12348" data-name="Group 12348" transform="translate(0)">
      <path id="Path_13264" data-name="Path 13264" d="M11.95,9.05A6.973,6.973,0,0,0,9.29,7.382a4.047,4.047,0,1,0-4.579,0A7.011,7.011,0,0,0,0,14H1.094a5.906,5.906,0,1,1,11.812,0H14A6.954,6.954,0,0,0,11.95,9.05ZM7,7A2.953,2.953,0,1,1,9.953,4.047,2.956,2.956,0,0,1,7,7Z" transform="translate(0)" fill="#7d7d7d"/>
    </g>
  </g>
</svg>
