<svg xmlns="http://www.w3.org/2000/svg" width="20.386" height="24.161" viewBox="0 0 20.386 24.161">
  <g id="verified" transform="translate(-40 0)">
    <path id="Path_13297" data-name="Path 13297" d="M59.8,3.912,50.555.072a.944.944,0,0,0-.724,0l-9.249,3.84A.944.944,0,0,0,40,4.784V9.452a15.806,15.806,0,0,0,9.836,14.639.944.944,0,0,0,.713,0A15.806,15.806,0,0,0,60.386,9.452V4.784A.944.944,0,0,0,59.8,3.912ZM58.5,9.452a13.921,13.921,0,0,1-8.306,12.74,13.922,13.922,0,0,1-8.306-12.74V5.414l8.306-3.448L58.5,5.414ZM49.15,12.634l4.057-4.057a.944.944,0,1,1,1.335,1.335l-4.724,4.724a.944.944,0,0,1-1.335,0L45.845,12a.944.944,0,0,1,1.335-1.335Z" transform="translate(0 0)" fill="#fff"/>
  </g>
</svg>
