<svg xmlns="http://www.w3.org/2000/svg" width="24.162" height="24.162" viewBox="0 0 24.162 24.162">
  <path id="Icon_material-language" data-name="Icon material-language" d="M15.069,3A12.081,12.081,0,1,0,27.162,15.081,12.075,12.075,0,0,0,15.069,3Zm8.372,7.248H19.877a18.905,18.905,0,0,0-1.667-4.3A9.7,9.7,0,0,1,23.441,10.248Zm-8.36-4.784a17.018,17.018,0,0,1,2.307,4.784H12.773A17.018,17.018,0,0,1,15.081,5.464ZM5.73,17.5a9.45,9.45,0,0,1,0-4.832H9.814a19.952,19.952,0,0,0-.169,2.416A19.952,19.952,0,0,0,9.814,17.5Zm.991,2.416h3.564a18.905,18.905,0,0,0,1.667,4.3A9.649,9.649,0,0,1,6.721,19.913Zm3.564-9.665H6.721a9.649,9.649,0,0,1,5.231-4.3A18.905,18.905,0,0,0,10.285,10.248Zm4.8,14.449a17.018,17.018,0,0,1-2.307-4.784h4.615A17.018,17.018,0,0,1,15.081,24.7Zm2.827-7.2H12.254a17.774,17.774,0,0,1-.193-2.416,17.62,17.62,0,0,1,.193-2.416h5.654a17.62,17.62,0,0,1,.193,2.416A17.774,17.774,0,0,1,17.908,17.5Zm.3,6.717a18.905,18.905,0,0,0,1.667-4.3h3.564a9.7,9.7,0,0,1-5.231,4.3ZM20.348,17.5a19.952,19.952,0,0,0,.169-2.416,19.952,19.952,0,0,0-.169-2.416h4.083a9.45,9.45,0,0,1,0,4.832Z" transform="translate(-3 -3)" fill="#fff"/>
</svg>
